<svg width="21" height="23" viewBox="0 0 21 23" fill="none" xmlns="http://www.w3.org/2000/svg">
<g clip-path="url(#clip0_5713_1891)">
<path d="M9.97583 19.4143C5.56583 19.4143 1.97583 15.8243 1.97583 11.4143C1.97583 7.00431 5.56583 3.41431 9.97583 3.41431C14.3858 3.41431 17.9758 7.00431 17.9758 11.4143C17.9758 15.8243 14.3858 19.4143 9.97583 19.4143ZM9.97583 1.41431C8.66261 1.41431 7.36225 1.67296 6.149 2.17551C4.93574 2.67806 3.83335 3.41465 2.90476 4.34324C1.0294 6.2186 -0.0241699 8.76214 -0.0241699 11.4143C-0.0241699 14.0665 1.0294 16.61 2.90476 18.4854C3.83335 19.414 4.93574 20.1506 6.149 20.6531C7.36225 21.1556 8.66261 21.4143 9.97583 21.4143C12.628 21.4143 15.1715 20.3607 17.0469 18.4854C18.9223 16.61 19.9758 14.0665 19.9758 11.4143C19.9758 10.1011 19.7172 8.80073 19.2146 7.58747C18.7121 6.37422 17.9755 5.27182 17.0469 4.34324C16.1183 3.41465 15.0159 2.67806 13.8027 2.17551C12.5894 1.67296 11.289 1.41431 9.97583 1.41431ZM10.9758 6.41431H8.97583V10.4143H4.97583V12.4143H8.97583V16.4143H10.9758V12.4143H14.9758V10.4143H10.9758V6.41431Z" fill="white"/>
</g>
<defs>
<clipPath id="clip0_5713_1891">
<rect width="20.7597" height="21.7033" fill="white" transform="translate(0.000732422 0.928711)"/>
</clipPath>
</defs>
</svg>
