<svg width="22" height="22" viewBox="0 0 22 22" fill="none" xmlns="http://www.w3.org/2000/svg">
<path d="M4.60004 5.39998H7.00002V4.59998C7.00002 4.17564 7.16859 3.76868 7.46864 3.46862C7.7687 3.16857 8.17566 3 8.6 3H13.4C13.8243 3 14.2313 3.16857 14.5313 3.46862C14.8314 3.76868 14.9999 4.17564 14.9999 4.59998V5.39998H17.3999C17.6121 5.39998 17.8156 5.48426 17.9656 5.63429C18.1156 5.78432 18.1999 5.9878 18.1999 6.19997C18.1999 6.41214 18.1156 6.61562 17.9656 6.76565C17.8156 6.91567 17.6121 6.99996 17.3999 6.99996H16.5999V17.3999C16.5999 17.8242 16.4313 18.2312 16.1313 18.5312C15.8312 18.8313 15.4243 18.9998 14.9999 18.9998H7.00002C6.57567 18.9998 6.16871 18.8313 5.86866 18.5312C5.5686 18.2312 5.40003 17.8242 5.40003 17.3999V6.99996H4.60004C4.38787 6.99996 4.18439 6.91567 4.03436 6.76565C3.88433 6.61562 3.80005 6.41214 3.80005 6.19997C3.80005 5.9878 3.88433 5.78432 4.03436 5.63429C4.18439 5.48426 4.38787 5.39998 4.60004 5.39998ZM7.00002 6.99996V17.3999H14.9999V6.99996H7.00002ZM8.6 5.39998H13.4V4.59998H8.6V5.39998ZM8.6 8.59994H10.2V15.7999H8.6V8.59994ZM11.8 8.59994H13.4V15.7999H11.8V8.59994Z" fill="white"/>
</svg>
