<svg width="17" height="17" viewBox="0 0 17 17" fill="none" xmlns="http://www.w3.org/2000/svg">
<path d="M2.31586 14.2858H4.76886L12.0036 7.05106L9.55059 4.59806L2.31586 11.8328V14.2858ZM3.62413 12.3757L9.55059 6.44926L10.1524 7.05106L4.22593 12.9775H3.62413V12.3757ZM12.3699 2.70106C12.3094 2.64042 12.2375 2.59231 12.1584 2.55949C12.0793 2.52666 11.9944 2.50977 11.9088 2.50977C11.8231 2.50977 11.7383 2.52666 11.6591 2.55949C11.58 2.59231 11.5081 2.64042 11.4476 2.70106L10.2505 3.89813L12.7035 6.35114L13.9006 5.15407C13.9612 5.09355 14.0093 5.02167 14.0422 4.94254C14.075 4.86341 14.0919 4.77858 14.0919 4.69291C14.0919 4.60723 14.075 4.5224 14.0422 4.44327C14.0093 4.36414 13.9612 4.29226 13.9006 4.23174L12.3699 2.70106Z" fill="black"/>
</svg>
