<svg width="17" height="17" viewBox="0 0 17 17" fill="none" xmlns="http://www.w3.org/2000/svg">
<path d="M4.41591 14.6094C4.21205 14.6091 4.0118 14.5556 3.83485 14.4544C3.43642 14.2286 3.18872 13.7903 3.18872 13.3145V3.68561C3.18872 3.20848 3.43642 2.77152 3.83485 2.54574C4.01601 2.44163 4.22181 2.38809 4.43074 2.39072C4.63966 2.39335 4.84405 2.45205 5.02253 2.56068L13.2519 7.4867C13.4234 7.59424 13.5648 7.74358 13.6628 7.92071C13.7608 8.09784 13.8122 8.29696 13.8122 8.49939C13.8122 8.70183 13.7608 8.90095 13.6628 9.07808C13.5648 9.25521 13.4234 9.40455 13.2519 9.51209L5.0212 14.4394C4.83855 14.5499 4.62934 14.6086 4.41591 14.6094Z" fill="white"/>
</svg>
