<svg width="20" height="21" viewBox="0 0 20 21" fill="none" xmlns="http://www.w3.org/2000/svg">
<path d="M9.9751 18.4143C5.5651 18.4143 1.9751 14.8243 1.9751 10.4143C1.9751 6.00431 5.5651 2.41431 9.9751 2.41431C14.3851 2.41431 17.9751 6.00431 17.9751 10.4143C17.9751 14.8243 14.3851 18.4143 9.9751 18.4143ZM9.9751 0.414307C8.66188 0.414307 7.36152 0.672964 6.14826 1.17551C4.93501 1.67806 3.83262 2.41465 2.90403 3.34324C1.02867 5.2186 -0.0249023 7.76214 -0.0249023 10.4143C-0.0249023 13.0665 1.02867 15.61 2.90403 17.4854C3.83262 18.414 4.93501 19.1506 6.14826 19.6531C7.36152 20.1556 8.66188 20.4143 9.9751 20.4143C12.6273 20.4143 15.1708 19.3607 17.0462 17.4854C18.9215 15.61 19.9751 13.0665 19.9751 10.4143C19.9751 9.10109 19.7164 7.80073 19.2139 6.58747C18.7113 5.37422 17.9748 4.27182 17.0462 3.34324C16.1176 2.41465 15.0152 1.67806 13.8019 1.17551C12.5887 0.672964 11.2883 0.414307 9.9751 0.414307Z" fill="white"/>
<path d="M7.92374 14.0001V6.83215C7.92389 6.74246 7.94816 6.65447 7.994 6.57739C8.03985 6.50031 8.10558 6.43698 8.18431 6.39403C8.26305 6.35109 8.35188 6.33011 8.44151 6.33329C8.53113 6.33648 8.61825 6.36372 8.69374 6.41215L14.2697 9.99515C14.3403 10.0404 14.3984 10.1027 14.4387 10.1762C14.4789 10.2498 14.5 10.3323 14.5 10.4161C14.5 10.5 14.4789 10.5825 14.4387 10.6561C14.3984 10.7296 14.3403 10.7919 14.2697 10.8371L8.69374 14.4211C8.61825 14.4696 8.53113 14.4968 8.44151 14.5C8.35188 14.5032 8.26305 14.4822 8.18431 14.4393C8.10558 14.3963 8.03985 14.333 7.994 14.2559C7.94816 14.1788 7.92389 14.0898 7.92374 14.0001Z" fill="white"/>
</svg>
